<svg xmlns="http://www.w3.org/2000/svg" viewBox="0 0 252.520 133.723" width="252.52" height="133.72" role="img" aria-label="Frond Studio">
  <title>Frond Studio</title>
  <g transform="translate(-7.993 73.242)" fill="#000000">
    <path d="M8.0078125 0.0V-70.3125H53.076171875V-63.0859375H16.796875V-41.40625H49.462890625V-34.1796875H16.796875V0.0Z M60.022984375 0.0V-52.734375H67.737828125V-41.552734375L67.444859375 -42.822265625Q69.788609375 -48.291015625 74.5005234375 -51.0986328125Q79.2124375 -53.90625 84.046421875 -53.90625Q85.4624375 -53.90625 86.8052109375 -53.662109375Q88.147984375 -53.41796875 89.319859375 -52.83203125L88.245640625 -45.1171875Q85.56009375 -45.947265625 82.923375 -45.947265625Q81.26321875 -45.947265625 78.7973984375 -45.2880859375Q76.331578125 -44.62890625 73.9145859375 -42.6513671875Q71.49759375 -40.673828125 69.8618515625 -36.767578125Q68.226109375 -32.861328125 68.226109375 -26.3671875V0.0Z M119.553984375 1.171875Q112.132109375 1.171875 106.468046875 -2.3193359375Q100.803984375 -5.810546875 97.63015625 -12.01171875Q94.456328125 -18.212890625 94.456328125 -26.3671875Q94.456328125 -34.521484375 97.63015625 -40.72265625Q100.803984375 -46.923828125 106.468046875 -50.4150390625Q112.132109375 -53.90625 119.553984375 -53.90625Q126.975859375 -53.90625 132.639921875 -50.4150390625Q138.303984375 -46.923828125 141.4778125 -40.72265625Q144.651640625 -34.521484375 144.651640625 -26.3671875Q144.651640625 -18.212890625 141.4778125 -12.01171875Q138.303984375 -5.810546875 132.639921875 -2.3193359375Q126.975859375 1.171875 119.553984375 1.171875ZM119.553984375 -5.6640625Q127.0246875 -5.6640625 131.3459765625 -11.23046875Q135.667265625 -16.796875 135.667265625 -26.3671875Q135.667265625 -35.986328125 131.3459765625 -41.5283203125Q127.0246875 -47.0703125 119.553984375 -47.0703125Q112.08328125 -47.0703125 107.7619921875 -41.5283203125Q103.440703125 -35.986328125 103.440703125 -26.3671875Q103.440703125 -16.796875 107.7619921875 -11.23046875Q112.08328125 -5.6640625 119.553984375 -5.6640625Z M157.394984375 0.0V-52.734375H165.109828125V-40.8203125L164.76803125 -42.96875Q166.867640625 -47.509765625 171.40865625 -50.7080078125Q175.949671875 -53.90625 182.4438125 -53.90625Q188.059046875 -53.90625 192.11178125 -51.416015625Q196.164515625 -48.92578125 198.36178125 -44.3115234375Q200.559046875 -39.697265625 200.559046875 -33.203125V0.0H192.355921875V-32.568359375Q192.355921875 -39.0625 189.6947890625 -43.06640625Q187.03365625 -47.0703125 180.930140625 -47.0703125Q174.33834375 -47.0703125 169.9682265625 -42.0654296875Q165.598109375 -37.060546875 165.598109375 -27.587890625V0.0Z M234.84525 1.171875Q228.448765625 1.171875 223.5415390625 -2.197265625Q218.6343125 -5.56640625 215.8999375 -11.767578125Q213.1655625 -17.96875 213.1655625 -26.416015625Q213.1655625 -34.86328125 215.9243515625 -41.0400390625Q218.683140625 -47.216796875 223.565953125 -50.5615234375Q228.448765625 -53.90625 234.84525 -53.90625Q240.02103125 -53.90625 245.09915625 -51.318359375Q250.17728125 -48.73046875 252.765171875 -42.578125L251.8374375 -42.1875V-73.2421875H260.04056249999996V0.0H252.32571875V-10.986328125L252.569859375 -10.205078125Q250.421421875 -4.443359375 245.440953125 -1.6357421875Q240.460484375 1.171875 234.84525 1.171875ZM236.9936875 -5.6640625Q241.144078125 -5.6640625 244.562046875 -7.8125Q247.980015625 -9.9609375 250.030796875 -14.5263671875Q252.081578125 -19.091796875 252.081578125 -26.220703125Q252.081578125 -36.865234375 247.687046875 -41.9677734375Q243.292515625 -47.0703125 237.09134375 -47.0703125Q230.548375 -47.0703125 226.34915625 -41.6748046875Q222.1499375 -36.279296875 222.1499375 -26.220703125Q222.1499375 -16.455078125 226.202671875 -11.0595703125Q230.25540625 -5.6640625 236.9936875 -5.6640625Z M19.76288475418091 60.48062324523926Q16.544443744659425 60.48062324523926 14.068515676498414 59.42929029464722Q11.592587608337404 58.377957344055176 10.036973136901857 56.34115695953369Q8.48135866546631 54.30435657501221 7.993077415466309 51.36748552322388L12.7456489982605 50.39531469345093Q12.888304370880128 53.63269090652466 14.665350097656251 55.33825993537903Q16.442395824432374 57.0438289642334 19.650386947631837 57.0438289642334Q21.63711227798462 57.0438289642334 22.96853103065491 56.42725944519043Q24.299949783325197 55.81068992614746 24.98066343688965 54.70809578895569Q25.661377090454103 53.605501651763916 25.661377090454103 52.1459436416626Q25.661377090454103 50.12763738632202 24.426842111587526 49.125518798828125Q23.19230713272095 48.12340021133423 21.090888160705568 47.670738697052L17.644604820251466 46.92166566848755Q16.507279056549073 46.678385734558105 15.108538049697877 46.24893546104431Q13.70979704284668 45.81948518753052 12.436050552368165 44.99644160270691Q11.16230406188965 44.1733980178833 10.33222593688965 42.78691649436951Q9.50214781188965 41.40043497085571 9.50214781188965 39.26262378692627Q9.50214781188965 36.5329384803772 10.903084653854371 34.79685306549072Q12.304021495819093 33.06076765060425 14.59526338005066 32.227572202682495Q16.886505264282228 31.394376754760742 19.557420391082765 31.394376754760742Q22.494291442871095 31.394376754760742 24.658966440200807 32.31914281845093Q26.82364143753052 33.24390888214111 28.181598562240602 34.95648503303528Q29.539555686950685 36.66906118392944 30.000647682189943 39.073898792266846L25.32447971725464 40.04903793334961Q25.16229309463501 38.38573694229126 24.490098136901857 37.22564697265625Q23.817903179168702 36.06555700302124 22.583517211914064 35.44836401939392Q21.349131244659425 34.8311710357666 19.461309093475343 34.8311710357666Q17.894119400024415 34.8311710357666 16.607699769973756 35.28359532356262Q15.321280139923097 35.73601961135864 14.549470323562623 36.656421422958374Q13.77766050720215 37.576823234558105 13.77766050720215 39.00325536727905Q13.77766050720215 40.60576677322388 14.985778707504274 41.54038667678833Q16.193896907806398 42.47500658035278 18.81078638458252 43.055481910705566L22.305037158966066 43.840649127960205Q24.292534965515138 44.27205801010132 26.08151473426819 45.17346382141113Q27.87049450302124 46.07486963272095 28.99095930480957 47.704007625579834Q30.1114241065979 49.33314561843872 30.1114241065979 51.99064254760742Q30.1114241065979 54.689695835113525 28.844949382781984 56.591410636901855Q27.578474658966066 58.493125438690186 25.256065505981447 59.48687434196472Q22.933656352996827 60.48062324523926 19.76288475418091 60.48062324523926Z M63.310764038085935 60.0V35.36522388458252H53.284821712493894V31.875H77.5741054649353V35.36522388458252H67.50910063934326V60.0Z M112.79243277740478 60.48062324523926Q109.36870383453369 60.48062324523926 106.88473152351379 59.22257900238037Q104.4007592124939 57.964534759521484 103.04974841308594 55.63868284225464Q101.69873761367798 53.31283092498779 101.69873761367798 50.1259708404541V31.875H105.8970742149353V49.843153953552246Q105.8970742149353 53.16833257675171 107.73951100540161 55.079365968704224Q109.58194779586792 56.99039936065674 112.79243277740478 56.99039936065674Q116.00291775894165 56.99039936065674 117.84535454940796 55.06897687911987Q119.68779133987427 53.14755439758301 119.68779133987427 49.76004123687744V31.875H123.88612794113159V50.1259708404541Q123.88612794113159 53.31283092498779 122.54339861106872 55.63868284225464Q121.20066928100586 57.964534759521484 118.70989965629578 59.22257900238037Q116.21913003158569 60.48062324523926 112.79243277740478 60.48062324523926Z M150.15136085891723 60.0V31.875H159.25299011611938Q164.2406424179077 31.875 167.42485963249206 33.547266721725464Q170.6090768470764 35.21953344345093 172.13399850273132 38.33773612976074Q173.65892015838622 41.45593881607056 173.65892015838622 45.771870613098145Q173.65892015838622 50.56812763214111 171.90211736106872 53.72773766517639Q170.1453145637512 56.88734769821167 166.87000118637084 58.443673849105835Q163.59468780899047 60.0 159.03767191314697 60.0ZM154.34969746017455 56.50977611541748H158.6089333190918Q169.16464649581908 56.50977611541748 169.16464649581908 45.9375Q169.16464649581908 42.676851749420166 168.1041713848114 40.30511260032654Q167.0436962738037 37.93337345123291 164.7713347568512 36.649298667907715Q162.49897323989867 35.36522388458252 158.8242515220642 35.36522388458252H154.34969746017455Z M197.49893618392943 60.0V56.65712118148804H201.27392960357665V35.21787881851196H197.49893618392943V31.875H209.2472596244812V35.21787881851196H205.47226620483397V56.65712118148804H209.2472596244812V60.0Z M246.79056701357752 60.48062324523926Q242.55784989166258 60.48062324523926 239.47597862052916 58.71304512023926Q236.39410734939574 56.94546699523926 234.73035932350157 53.68062272198113Q233.0666112976074 50.415778448723 233.0666112976074 45.93883630156066Q233.0666112976074 41.442344188690186 234.73047812104852 38.18750648878891Q236.3943449444896 34.932668788887646 239.47594444589237 33.16352277182419Q242.55754394729513 31.394376754760742 246.7910512495417 31.394376754760742Q251.02455855178832 31.394376754760742 254.10529361247222 33.16339913875826Q257.18602867315616 34.932421522755774 258.8494287538449 38.187031765137945Q260.5128288345337 41.441642007520116 260.5128288345337 45.9375Q260.5128288345337 50.41498568722876 258.84908080863954 53.680226341234004Q257.1853327827454 56.94546699523926 254.1043084591189 58.71304512023926Q251.02328413549245 60.48062324523926 246.79056701357752 60.48062324523926ZM246.78876905370916 56.99039936065674Q249.65083838272093 56.99039936065674 251.718982465744 55.651559829711914Q253.78712654876708 54.31272029876709 254.90284086036684 51.82910680770874Q256.01855517196657 49.34549331665039 256.01855517196657 45.9370470696639Q256.01855517196657 42.50997543334961 254.90284086036684 40.03612756729126Q253.78712654876708 37.56227970123291 251.718982465744 36.223440170288086Q249.65083838272093 34.88460063934326 246.78876905370916 34.88460063934326Q243.94516468811034 34.88460063934326 241.87022329139708 36.223440170288086Q239.79528189468382 37.56227970123291 238.6780834274292 40.03612756729126Q237.56088496017455 42.50997543334961 237.56088496017455 45.9370470696639Q237.56088496017455 49.34549331665039 238.6780834274292 51.82910680770874Q239.79528189468382 54.31272029876709 241.87022329139708 55.651559829711914Q243.94516468811034 56.99039936065674 246.78876905370916 56.99039936065674Z"/>
  </g>
</svg>
