<svg xmlns="http://www.w3.org/2000/svg" viewBox="0 0 255.085 133.723" width="255.08" height="133.72" role="img" aria-label="Frond Studio">
  <title>Frond Studio</title>
  <g transform="translate(-6.741 73.242)" fill="#FFFFFF">
    <path d="M8.0078125 0.0V-70.3125H53.076171875V-63.0859375H16.796875V-41.40625H49.462890625V-34.1796875H16.796875V0.0Z M60.022984375 0.0V-52.734375H67.737828125V-41.552734375L67.444859375 -42.822265625Q69.788609375 -48.291015625 74.5005234375 -51.0986328125Q79.2124375 -53.90625 84.046421875 -53.90625Q85.4624375 -53.90625 86.8052109375 -53.662109375Q88.147984375 -53.41796875 89.319859375 -52.83203125L88.245640625 -45.1171875Q85.56009375 -45.947265625 82.923375 -45.947265625Q81.26321875 -45.947265625 78.7973984375 -45.2880859375Q76.331578125 -44.62890625 73.9145859375 -42.6513671875Q71.49759375 -40.673828125 69.8618515625 -36.767578125Q68.226109375 -32.861328125 68.226109375 -26.3671875V0.0Z M119.553984375 1.171875Q112.132109375 1.171875 106.468046875 -2.3193359375Q100.803984375 -5.810546875 97.63015625 -12.01171875Q94.456328125 -18.212890625 94.456328125 -26.3671875Q94.456328125 -34.521484375 97.63015625 -40.72265625Q100.803984375 -46.923828125 106.468046875 -50.4150390625Q112.132109375 -53.90625 119.553984375 -53.90625Q126.975859375 -53.90625 132.639921875 -50.4150390625Q138.303984375 -46.923828125 141.4778125 -40.72265625Q144.651640625 -34.521484375 144.651640625 -26.3671875Q144.651640625 -18.212890625 141.4778125 -12.01171875Q138.303984375 -5.810546875 132.639921875 -2.3193359375Q126.975859375 1.171875 119.553984375 1.171875ZM119.553984375 -5.6640625Q127.0246875 -5.6640625 131.3459765625 -11.23046875Q135.667265625 -16.796875 135.667265625 -26.3671875Q135.667265625 -35.986328125 131.3459765625 -41.5283203125Q127.0246875 -47.0703125 119.553984375 -47.0703125Q112.08328125 -47.0703125 107.7619921875 -41.5283203125Q103.440703125 -35.986328125 103.440703125 -26.3671875Q103.440703125 -16.796875 107.7619921875 -11.23046875Q112.08328125 -5.6640625 119.553984375 -5.6640625Z M157.394984375 0.0V-52.734375H165.109828125V-40.8203125L164.76803125 -42.96875Q166.867640625 -47.509765625 171.40865625 -50.7080078125Q175.949671875 -53.90625 182.4438125 -53.90625Q188.059046875 -53.90625 192.11178125 -51.416015625Q196.164515625 -48.92578125 198.36178125 -44.3115234375Q200.559046875 -39.697265625 200.559046875 -33.203125V0.0H192.355921875V-32.568359375Q192.355921875 -39.0625 189.6947890625 -43.06640625Q187.03365625 -47.0703125 180.930140625 -47.0703125Q174.33834375 -47.0703125 169.9682265625 -42.0654296875Q165.598109375 -37.060546875 165.598109375 -27.587890625V0.0Z M234.84525 1.171875Q228.448765625 1.171875 223.5415390625 -2.197265625Q218.6343125 -5.56640625 215.8999375 -11.767578125Q213.1655625 -17.96875 213.1655625 -26.416015625Q213.1655625 -34.86328125 215.9243515625 -41.0400390625Q218.683140625 -47.216796875 223.565953125 -50.5615234375Q228.448765625 -53.90625 234.84525 -53.90625Q240.02103125 -53.90625 245.09915625 -51.318359375Q250.17728125 -48.73046875 252.765171875 -42.578125L251.8374375 -42.1875V-73.2421875H260.04056249999996V0.0H252.32571875V-10.986328125L252.569859375 -10.205078125Q250.421421875 -4.443359375 245.440953125 -1.6357421875Q240.460484375 1.171875 234.84525 1.171875ZM236.9936875 -5.6640625Q241.144078125 -5.6640625 244.562046875 -7.8125Q247.980015625 -9.9609375 250.030796875 -14.5263671875Q252.081578125 -19.091796875 252.081578125 -26.220703125Q252.081578125 -36.865234375 247.687046875 -41.9677734375Q243.292515625 -47.0703125 237.09134375 -47.0703125Q230.548375 -47.0703125 226.34915625 -41.6748046875Q222.1499375 -36.279296875 222.1499375 -26.220703125Q222.1499375 -16.455078125 226.202671875 -11.0595703125Q230.25540625 -5.6640625 236.9936875 -5.6640625Z M18.511084754180906 60.48062324523926Q15.292643744659424 60.48062324523926 12.816715676498413 59.42929029464722Q10.340787608337402 58.377957344055176 8.785173136901856 56.34115695953369Q7.229558665466309 54.30435657501221 6.741277415466309 51.36748552322388L11.493848998260498 50.39531469345093Q11.636504370880127 53.63269090652466 13.41355009765625 55.33825993537903Q15.190595824432373 57.0438289642334 18.398586947631834 57.0438289642334Q20.385312277984617 57.0438289642334 21.716731030654906 56.42725944519043Q23.048149783325194 55.81068992614746 23.728863436889647 54.70809578895569Q24.4095770904541 53.605501651763916 24.4095770904541 52.1459436416626Q24.4095770904541 50.12763738632202 23.175042111587523 49.125518798828125Q21.940507132720946 48.12340021133423 19.839088160705565 47.670738697052L16.392804820251463 46.92166566848755Q15.255479056549072 46.678385734558105 13.856738049697876 46.24893546104431Q12.45799704284668 45.81948518753052 11.184250552368164 44.99644160270691Q9.910504061889648 44.1733980178833 9.080425936889648 42.78691649436951Q8.250347811889648 41.40043497085571 8.250347811889648 39.26262378692627Q8.250347811889648 36.5329384803772 9.65128465385437 34.79685306549072Q11.052221495819092 33.06076765060425 13.34346338005066 32.227572202682495Q15.634705264282227 31.394376754760742 18.305620391082762 31.394376754760742Q21.242491442871092 31.394376754760742 23.407166440200804 32.31914281845093Q25.571841437530516 33.24390888214111 26.9297985622406 34.95648503303528Q28.287755686950682 36.66906118392944 28.74884768218994 39.073898792266846L24.072679717254637 40.04903793334961Q23.910493094635008 38.38573694229126 23.238298136901854 37.22564697265625Q22.5661031791687 36.06555700302124 21.33171721191406 35.44836401939392Q20.097331244659422 34.8311710357666 18.20950909347534 34.8311710357666Q16.642319400024412 34.8311710357666 15.355899769973753 35.28359532356262Q14.069480139923096 35.73601961135864 13.297670323562622 36.656421422958374Q12.525860507202148 37.576823234558105 12.525860507202148 39.00325536727905Q12.525860507202148 40.60576677322388 13.733978707504273 41.54038667678833Q14.942096907806397 42.47500658035278 17.558986384582518 43.055481910705566L21.053237158966063 43.840649127960205Q23.040734965515135 44.27205801010132 24.829714734268187 45.17346382141113Q26.61869450302124 46.07486963272095 27.73915930480957 47.704007625579834Q28.8596241065979 49.33314561843872 28.8596241065979 51.99064254760742Q28.8596241065979 54.689695835113525 27.59314938278198 56.591410636901855Q26.326674658966063 58.493125438690186 24.004265505981444 59.48687434196472Q21.681856352996824 60.48062324523926 18.511084754180906 60.48062324523926Z M62.567521538085934 60.0V35.36522388458252H52.54157921249389V31.875H76.8308629649353V35.36522388458252H66.76585813934327V60.0Z M112.57387277740477 60.48062324523926Q109.15014383453368 60.48062324523926 106.66617152351378 59.22257900238037Q104.18219921249388 57.964534759521484 102.83118841308593 55.63868284225464Q101.48017761367797 53.31283092498779 101.48017761367797 50.1259708404541V31.875H105.67851421493529V49.843153953552246Q105.67851421493529 53.16833257675171 107.5209510054016 55.079365968704224Q109.36338779586791 56.99039936065674 112.57387277740477 56.99039936065674Q115.78435775894164 56.99039936065674 117.62679454940795 55.06897687911987Q119.46923133987426 53.14755439758301 119.46923133987426 49.76004123687744V31.875H123.66756794113158V50.1259708404541Q123.66756794113158 53.31283092498779 122.32483861106871 55.63868284225464Q120.98210928100585 57.964534759521484 118.49133965629576 59.22257900238037Q116.00057003158568 60.48062324523926 112.57387277740477 60.48062324523926Z M150.4373583589172 60.0V31.875H159.53898761611936Q164.5266399179077 31.875 167.71085713249204 33.547266721725464Q170.8950743470764 35.21953344345093 172.4199960027313 38.33773612976074Q173.9449176583862 41.45593881607056 173.9449176583862 45.771870613098145Q173.9449176583862 50.56812763214111 172.1881148610687 53.72773766517639Q170.4313120637512 56.88734769821167 167.15599868637082 58.443673849105835Q163.88068530899045 60.0 159.32366941314694 60.0ZM154.63569496017453 56.50977611541748H158.89493081909177Q169.45064399581906 56.50977611541748 169.45064399581906 45.9375Q169.45064399581906 42.676851749420166 168.39016888481137 40.30511260032654Q167.32969377380368 37.93337345123291 165.05733225685117 36.649298667907715Q162.78497073989865 35.36522388458252 159.11024902206418 35.36522388458252H154.63569496017453Z M198.31592868392943 60.0V56.65712118148804H202.09092210357664V35.21787881851196H198.31592868392943V31.875H210.0642521244812V35.21787881851196H206.28925870483397V56.65712118148804H210.0642521244812V60.0Z M248.10364826357753 60.48062324523926Q243.8709311416626 60.48062324523926 240.78905987052917 58.71304512023926Q237.70718859939575 56.94546699523926 236.04344057350158 53.68062272198113Q234.37969254760742 50.415778448723 234.37969254760742 45.93883630156066Q234.37969254760742 41.442344188690186 236.0435593710485 38.18750648878891Q237.7074261944896 34.932668788887646 240.78902569589238 33.16352277182419Q243.87062519729514 31.394376754760742 248.10413249954172 31.394376754760742Q252.33763980178833 31.394376754760742 255.41837486247223 33.16339913875826Q258.49910992315614 34.932421522755774 260.1625100038449 38.187031765137945Q261.8259100845337 41.441642007520116 261.8259100845337 45.9375Q261.8259100845337 50.41498568722876 260.1621620586395 53.680226341234004Q258.49841403274536 56.94546699523926 255.4173897091189 58.71304512023926Q252.33636538549246 60.48062324523926 248.10364826357753 60.48062324523926ZM248.10185030370917 56.99039936065674Q250.96391963272094 56.99039936065674 253.03206371574402 55.651559829711914Q255.1002077987671 54.31272029876709 256.2159221103668 51.82910680770874Q257.33163642196655 49.34549331665039 257.33163642196655 45.9370470696639Q257.33163642196655 42.50997543334961 256.2159221103668 40.03612756729126Q255.1002077987671 37.56227970123291 253.03206371574402 36.223440170288086Q250.96391963272094 34.88460063934326 248.10185030370917 34.88460063934326Q245.25824593811035 34.88460063934326 243.1833045413971 36.223440170288086Q241.10836314468384 37.56227970123291 239.9911646774292 40.03612756729126Q238.87396621017456 42.50997543334961 238.87396621017456 45.9370470696639Q238.87396621017456 49.34549331665039 239.9911646774292 51.82910680770874Q241.10836314468384 54.31272029876709 243.1833045413971 55.651559829711914Q245.25824593811035 56.99039936065674 248.10185030370917 56.99039936065674Z"/>
  </g>
</svg>
