<svg xmlns="http://www.w3.org/2000/svg" viewBox="0 0 259.396 133.723" width="259.40" height="133.72" role="img" aria-label="Frond Studio">
  <title>Frond Studio</title>
  <g transform="translate(-1.149 73.242)" fill="#000000">
    <path d="M8.0078125 0.0V-70.3125H53.076171875V-63.0859375H16.796875V-41.40625H49.462890625V-34.1796875H16.796875V0.0Z M60.038984375 0.0V-52.734375H67.753828125V-41.552734375L67.460859375 -42.822265625Q69.804609375 -48.291015625 74.5165234375 -51.0986328125Q79.2284375 -53.90625 84.062421875 -53.90625Q85.4784375 -53.90625 86.8212109375 -53.662109375Q88.163984375 -53.41796875 89.335859375 -52.83203125L88.261640625 -45.1171875Q85.57609375 -45.947265625 82.939375 -45.947265625Q81.27921875 -45.947265625 78.8133984375 -45.2880859375Q76.347578125 -44.62890625 73.9305859375 -42.6513671875Q71.51359375 -40.673828125 69.8778515625 -36.767578125Q68.242109375 -32.861328125 68.242109375 -26.3671875V0.0Z M119.553984375 1.171875Q112.132109375 1.171875 106.468046875 -2.3193359375Q100.803984375 -5.810546875 97.63015625 -12.01171875Q94.456328125 -18.212890625 94.456328125 -26.3671875Q94.456328125 -34.521484375 97.63015625 -40.72265625Q100.803984375 -46.923828125 106.468046875 -50.4150390625Q112.132109375 -53.90625 119.553984375 -53.90625Q126.975859375 -53.90625 132.639921875 -50.4150390625Q138.303984375 -46.923828125 141.4778125 -40.72265625Q144.651640625 -34.521484375 144.651640625 -26.3671875Q144.651640625 -18.212890625 141.4778125 -12.01171875Q138.303984375 -5.810546875 132.639921875 -2.3193359375Q126.975859375 1.171875 119.553984375 1.171875ZM119.553984375 -5.6640625Q127.0246875 -5.6640625 131.3459765625 -11.23046875Q135.667265625 -16.796875 135.667265625 -26.3671875Q135.667265625 -35.986328125 131.3459765625 -41.5283203125Q127.0246875 -47.0703125 119.553984375 -47.0703125Q112.08328125 -47.0703125 107.7619921875 -41.5283203125Q103.440703125 -35.986328125 103.440703125 -26.3671875Q103.440703125 -16.796875 107.7619921875 -11.23046875Q112.08328125 -5.6640625 119.553984375 -5.6640625Z M157.398984375 0.0V-52.734375H165.113828125V-40.8203125L164.77203125 -42.96875Q166.871640625 -47.509765625 171.41265625 -50.7080078125Q175.953671875 -53.90625 182.4478125 -53.90625Q188.063046875 -53.90625 192.11578125 -51.416015625Q196.168515625 -48.92578125 198.36578125 -44.3115234375Q200.563046875 -39.697265625 200.563046875 -33.203125V0.0H192.359921875V-32.568359375Q192.359921875 -39.0625 189.6987890625 -43.06640625Q187.03765625 -47.0703125 180.934140625 -47.0703125Q174.34234375 -47.0703125 169.9722265625 -42.0654296875Q165.602109375 -37.060546875 165.602109375 -27.587890625V0.0Z M234.86125 1.171875Q228.464765625 1.171875 223.5575390625 -2.197265625Q218.6503125 -5.56640625 215.9159375 -11.767578125Q213.1815625 -17.96875 213.1815625 -26.416015625Q213.1815625 -34.86328125 215.9403515625 -41.0400390625Q218.699140625 -47.216796875 223.581953125 -50.5615234375Q228.464765625 -53.90625 234.86125 -53.90625Q240.03703125 -53.90625 245.11515625 -51.318359375Q250.19328125 -48.73046875 252.781171875 -42.578125L251.8534375 -42.1875V-73.2421875H260.05656250000004V0.0H252.34171875V-10.986328125L252.585859375 -10.205078125Q250.437421875 -4.443359375 245.456953125 -1.6357421875Q240.476484375 1.171875 234.86125 1.171875ZM237.0096875 -5.6640625Q241.160078125 -5.6640625 244.578046875 -7.8125Q247.996015625 -9.9609375 250.046796875 -14.5263671875Q252.097578125 -19.091796875 252.097578125 -26.220703125Q252.097578125 -36.865234375 247.703046875 -41.9677734375Q243.308515625 -47.0703125 237.10734375 -47.0703125Q230.564375 -47.0703125 226.36515625 -41.6748046875Q222.1659375 -36.279296875 222.1659375 -26.220703125Q222.1659375 -16.455078125 226.218671875 -11.0595703125Q230.27140625 -5.6640625 237.0096875 -5.6640625Z M12.918884754180908 60.48062324523926Q9.700443744659424 60.48062324523926 7.224515676498413 59.42929029464722Q4.748587608337402 58.377957344055176 3.1929731369018555 56.34115695953369Q1.6373586654663086 54.30435657501221 1.1490774154663086 51.36748552322388L5.901648998260498 50.39531469345093Q6.044304370880127 53.63269090652466 7.82135009765625 55.33825993537903Q9.598395824432373 57.0438289642334 12.806386947631836 57.0438289642334Q14.79311227798462 57.0438289642334 16.124531030654907 56.42725944519043Q17.455949783325195 55.81068992614746 18.13666343688965 54.70809578895569Q18.8173770904541 53.605501651763916 18.8173770904541 52.1459436416626Q18.8173770904541 50.12763738632202 17.582842111587524 49.125518798828125Q16.348307132720947 48.12340021133423 14.246888160705566 47.670738697052L10.800604820251465 46.92166566848755Q9.663279056549072 46.678385734558105 8.264538049697876 46.24893546104431Q6.86579704284668 45.81948518753052 5.592050552368164 44.99644160270691Q4.318304061889648 44.1733980178833 3.4882259368896484 42.78691649436951Q2.6581478118896484 41.40043497085571 2.6581478118896484 39.26262378692627Q2.6581478118896484 36.5329384803772 4.05908465385437 34.79685306549072Q5.460021495819092 33.06076765060425 7.751263380050659 32.227572202682495Q10.042505264282227 31.394376754760742 12.713420391082764 31.394376754760742Q15.650291442871094 31.394376754760742 17.814966440200806 32.31914281845093Q19.979641437530518 33.24390888214111 21.3375985622406 34.95648503303528Q22.695555686950684 36.66906118392944 23.15664768218994 39.073898792266846L18.48047971725464 40.04903793334961Q18.31829309463501 38.38573694229126 17.646098136901855 37.22564697265625Q16.9739031791687 36.06555700302124 15.739517211914062 35.44836401939392Q14.505131244659424 34.8311710357666 12.617309093475342 34.8311710357666Q11.050119400024414 34.8311710357666 9.763699769973755 35.28359532356262Q8.477280139923096 35.73601961135864 7.705470323562622 36.656421422958374Q6.933660507202148 37.576823234558105 6.933660507202148 39.00325536727905Q6.933660507202148 40.60576677322388 8.141778707504272 41.54038667678833Q9.349896907806396 42.47500658035278 11.96678638458252 43.055481910705566L15.461037158966064 43.840649127960205Q17.448534965515137 44.27205801010132 19.23751473426819 45.17346382141113Q21.02649450302124 46.07486963272095 22.14695930480957 47.704007625579834Q23.2674241065979 49.33314561843872 23.2674241065979 51.99064254760742Q23.2674241065979 54.689695835113525 22.000949382781982 56.591410636901855Q20.734474658966064 58.493125438690186 18.412065505981445 59.48687434196472Q16.089656352996826 60.48062324523926 12.918884754180908 60.48062324523926Z M57.83876403808594 60.0V35.36522388458252H47.8128217124939V31.875H72.1021054649353V35.36522388458252H62.037100639343265V60.0Z M108.70043277740479 60.48062324523926Q105.27670383453369 60.48062324523926 102.7927315235138 59.22257900238037Q100.3087592124939 57.964534759521484 98.95774841308594 55.63868284225464Q97.60673761367798 53.31283092498779 97.60673761367798 50.1259708404541V31.875H101.8050742149353V49.843153953552246Q101.8050742149353 53.16833257675171 103.64751100540161 55.079365968704224Q105.48994779586792 56.99039936065674 108.70043277740479 56.99039936065674Q111.91091775894165 56.99039936065674 113.75335454940796 55.06897687911987Q115.59579133987427 53.14755439758301 115.59579133987427 49.76004123687744V31.875H119.79412794113159V50.1259708404541Q119.79412794113159 53.31283092498779 118.45139861106873 55.63868284225464Q117.10866928100586 57.964534759521484 114.61789965629578 59.22257900238037Q112.1271300315857 60.48062324523926 108.70043277740479 60.48062324523926Z M147.44736085891725 60.0V31.875H156.5489901161194Q161.53664241790773 31.875 164.72085963249208 33.547266721725464Q167.90507684707643 35.21953344345093 169.42999850273134 38.33773612976074Q170.95492015838624 41.45593881607056 170.95492015838624 45.771870613098145Q170.95492015838624 50.56812763214111 169.19811736106874 53.72773766517639Q167.44131456375123 56.88734769821167 164.16600118637086 58.443673849105835Q160.8906878089905 60.0 156.333671913147 60.0ZM151.64569746017457 56.50977611541748H155.9049333190918Q166.4606464958191 56.50977611541748 166.4606464958191 45.9375Q166.4606464958191 42.676851749420166 165.40017138481142 40.30511260032654Q164.33969627380372 37.93337345123291 162.0673347568512 36.649298667907715Q159.7949732398987 35.36522388458252 156.12025152206422 35.36522388458252H151.64569746017457Z M196.15093618392945 60.0V56.65712118148804H199.92592960357666V35.21787881851196H196.15093618392945V31.875H207.8992596244812V35.21787881851196H204.124266204834V56.65712118148804H207.8992596244812V60.0Z M246.82256701357753 60.48062324523926Q242.5898498916626 60.48062324523926 239.50797862052917 58.71304512023926Q236.42610734939575 56.94546699523926 234.76235932350158 53.68062272198113Q233.09861129760742 50.415778448723 233.09861129760742 45.93883630156066Q233.09861129760742 41.442344188690186 234.7624781210485 38.18750648878891Q236.4263449444896 34.932668788887646 239.50794444589238 33.16352277182419Q242.58954394729514 31.394376754760742 246.82305124954172 31.394376754760742Q251.05655855178833 31.394376754760742 254.13729361247223 33.16339913875826Q257.21802867315614 34.932421522755774 258.88142875384494 38.187031765137945Q260.5448288345337 41.441642007520116 260.5448288345337 45.9375Q260.5448288345337 50.41498568722876 258.8810808086395 53.680226341234004Q257.21733278274536 56.94546699523926 254.1363084591189 58.71304512023926Q251.05528413549246 60.48062324523926 246.82256701357753 60.48062324523926ZM246.82076905370917 56.99039936065674Q249.68283838272094 56.99039936065674 251.75098246574402 55.651559829711914Q253.8191265487671 54.31272029876709 254.93484086036682 51.82910680770874Q256.05055517196655 49.34549331665039 256.05055517196655 45.9370470696639Q256.05055517196655 42.50997543334961 254.93484086036682 40.03612756729126Q253.8191265487671 37.56227970123291 251.75098246574402 36.223440170288086Q249.68283838272094 34.88460063934326 246.82076905370917 34.88460063934326Q243.97716468811035 34.88460063934326 241.9022232913971 36.223440170288086Q239.82728189468384 37.56227970123291 238.7100834274292 40.03612756729126Q237.59288496017456 42.50997543334961 237.59288496017456 45.9370470696639Q237.59288496017456 49.34549331665039 238.7100834274292 51.82910680770874Q239.82728189468384 54.31272029876709 241.9022232913971 55.651559829711914Q243.97716468811035 56.99039936065674 246.82076905370917 56.99039936065674Z"/>
  </g>
</svg>
